<?xml version="1.0" standalone="no"?>
<!DOCTYPE svg PUBLIC "-//W3C//DTD SVG 20010904//EN"
 "http://www.w3.org/TR/2001/REC-SVG-20010904/DTD/svg10.dtd">
<svg version="1.0" xmlns="http://www.w3.org/2000/svg"
 width="512.000000pt" height="512.000000pt" viewBox="0 0 512.000000 512.000000"
 preserveAspectRatio="xMidYMid meet">
<metadata>
Created by potrace 1.14, written by Peter Selinger 2001-2017
</metadata>
<g transform="translate(0.000000,512.000000) scale(0.100000,-0.100000)"
fill="#000000" stroke="none">
<path d="M1114 5074 c-99 -16 -139 -30 -214 -74 -123 -72 -212 -179 -266 -320
l-29 -75 -3 -1551 -3 -1550 602 0 601 1 190 195 c162 167 191 193 201 179 7
-9 78 -101 159 -205 82 -104 209 -268 284 -364 74 -96 146 -188 159 -205 22
-27 123 -157 269 -345 27 -36 120 -155 205 -265 85 -110 160 -206 166 -214 5
-7 38 -41 72 -75 97 -98 247 -164 383 -168 65 -2 168 10 190 22 8 4 17 8 20 8
14 1 50 16 97 38 158 78 279 245 312 429 13 73 7 203 -13 266 -34 109 -73 171
-246 389 -63 79 -138 175 -231 296 -67 88 -755 972 -777 999 -4 6 -38 48 -75
95 -270 343 -361 458 -375 475 -9 11 -33 40 -52 65 -19 25 -41 52 -47 60 -7 8
-103 130 -214 270 -111 140 -205 254 -210 253 -8 -3 -129 -125 -363 -368
l-106 -109 -2 664 c0 366 -2 670 -3 675 -26 171 -120 320 -261 415 -95 63
-177 90 -319 104 -16 1 -62 -3 -101 -10z"/>
<path d="M3698 5055 c-32 -8 -81 -26 -110 -41 -105 -53 -123 -68 -385 -340
-43 -44 -193 -199 -333 -344 -140 -144 -255 -268 -255 -276 0 -10 113 -160
222 -294 33 -41 341 -431 363 -460 14 -18 30 -38 35 -44 6 -6 34 -42 64 -79
52 -66 54 -67 73 -50 19 17 79 78 253 258 39 40 183 189 321 331 401 412 386
396 432 489 41 83 63 173 64 264 1 269 -173 500 -442 584 -61 18 -231 20 -302
2z"/>
<path d="M600 795 c1 -249 9 -303 59 -415 52 -118 165 -229 295 -289 60 -27
78 -33 156 -47 199 -35 445 64 564 226 106 145 125 221 126 528 l1 232 -601 0
-601 0 1 -235z"/>
</g>
</svg>
